<svg width="23" height="17" viewBox="0 0 23 17" fill="none" xmlns="http://www.w3.org/2000/svg">
<path d="M15.1744 13.3334C15.2917 13.4507 15.4451 13.5092 15.5988 13.5092C15.7524 13.5092 15.9058 13.4507 16.0232 13.3334L21.4624 7.89477C21.5749 7.78222 21.6382 7.62944 21.6382 7.47037C21.6382 7.31129 21.5749 7.15852 21.4624 7.04597L16.0235 1.60647C15.7891 1.37206 15.4091 1.37206 15.1747 1.60647C14.9403 1.84088 14.9403 2.22087 15.1747 2.45528L19.6318 6.913C19.0264 6.89559 18.3802 6.86858 17.7046 6.83887C12.8044 6.62336 6.70523 6.35624 3.47089 9.45131C2.07222 10.79 1.36328 12.6463 1.36328 14.9682C1.36328 15.2996 1.63221 15.5685 1.96357 15.5685C2.29493 15.5685 2.56385 15.3128 2.56385 14.9814C2.56385 12.9717 3.13232 11.4641 4.30108 10.3451C7.16505 7.60423 13.227 7.89717 17.6517 8.09106C18.2826 8.11898 18.8877 8.164 19.4625 8.19731L15.1744 12.4846C14.94 12.719 14.94 13.099 15.1744 13.3334Z" fill="#43176E" stroke="#43176E"/>
</svg>
