<svg width="23" height="17" viewBox="0 0 23 17" fill="none" xmlns="http://www.w3.org/2000/svg">
<path d="M7.82759 13.3334C7.71023 13.4507 7.55686 13.5092 7.40319 13.5092C7.24951 13.5092 7.09614 13.4507 6.97879 13.3334L1.53959 7.89477C1.42704 7.78222 1.36371 7.62944 1.36371 7.47037C1.36371 7.31129 1.42704 7.15852 1.53959 7.04597L6.97849 1.60647C7.2129 1.37206 7.59288 1.37206 7.82729 1.60647C8.0617 1.84088 8.0617 2.22087 7.82729 2.45528L3.37016 6.913C3.97555 6.89559 4.62176 6.86858 5.29738 6.83887C10.1975 6.62336 16.2967 6.35624 19.5311 9.45131C20.9297 10.79 21.6387 12.6463 21.6387 14.9682C21.6387 15.2996 21.3697 15.5685 21.0384 15.5685C20.707 15.5685 20.4381 15.3128 20.4381 14.9814C20.4381 12.9717 19.8696 11.4641 18.7009 10.3451C15.8369 7.60423 9.77492 7.89717 5.35021 8.09106C4.71931 8.11898 4.11422 8.164 3.53945 8.19731L7.82759 12.4846C8.062 12.719 8.062 13.099 7.82759 13.3334Z" fill="#43176E" stroke="#43176E"/>
</svg>
